<?xml version='1.0' encoding='UTF-8' standalone='no'?>
<!-- Created with Fritzing (https://fritzing.org/) -->
<svg xmlns="http://www.w3.org/2000/svg" x="0in" xmlns:svg="http://www.w3.org/2000/svg" y="0in" version="1.2" height="14.5107in"  baseProfile="tiny" width="17.6604in" viewBox="0 0 127.155 104.477">
 <g id="watermark" >
  <g >
   <g >
    <path fill="#8C8C8C" d="M102.423,98.2769c-0.604,0,-1.131,0.325,-1.422,0.809l-2.796,0l3.96,-4.071c0.146,-0.146,0.289,-0.322,0.428,-0.521c0.149,-0.222,0.228,-0.479,0.228,-0.768c0,-0.279,-0.097,-0.518,-0.287,-0.71c-0.19,-0.188,-0.444,-0.287,-0.754,-0.287l-4.636,0c-0.305,0,-0.555,0.06,-0.742,0.17c-0.219,0.13,-0.33,0.368,-0.33,0.707c0,0.329,0.111,0.562,0.33,0.692c0.188,0.111,0.438,0.168,0.742,0.168l3.148,0l-3.974,4.086c-0.146,0.147,-0.289,0.315,-0.425,0.504c-0.153,0.212,-0.23,0.472,-0.23,0.771c0,0.28,0.096,0.521,0.288,0.711c0.188,0.188,0.442,0.285,0.754,0.285l4.315,0c0.293,0.467,0.812,0.776,1.4,0.776c0.916,0,1.66,-0.744,1.66,-1.661C104.082,99.0219,103.337,98.2769,102.423,98.2769zM102.423,100.54c-0.334,0,-0.604,-0.271,-0.604,-0.604c0,-0.333,0.27,-0.604,0.604,-0.604c0.332,0,0.604,0.271,0.604,0.604C103.026,100.271,102.755,100.54,102.423,100.54z" />
    <path fill="#8C8C8C" d="M85.4799,88.2349c-0.914,0,-1.659,0.745,-1.659,1.66c0,0.916,0.745,1.66,1.659,1.66s1.658,-0.744,1.658,-1.66C87.1399,88.9799,86.3959,88.2349,85.4799,88.2349zM85.4809,90.4979c-0.333,0,-0.604,-0.27,-0.604,-0.603s0.271,-0.603,0.604,-0.603c0.331,0,0.604,0.27,0.604,0.603S85.8119,90.4979,85.4809,90.4979z" />
    <path fill="#8C8C8C" d="M94.0009,92.8969c-0.193,-0.111,-0.439,-0.169,-0.732,-0.169l-1.465,0L91.8039,90.2059c0,-0.292,-0.057,-0.538,-0.166,-0.729C91.5479,89.3199,91.3549,89.1349,90.9449,89.1349c-0.34,0,-0.578,0.116,-0.709,0.342c-0.109,0.193,-0.167,0.438,-0.167,0.729l0,2.521l-0.481,0c-0.295,0,-0.539,0.06,-0.731,0.169c-0.228,0.129,-0.341,0.368,-0.341,0.708c0,0.412,0.185,0.603,0.341,0.692c0.192,0.111,0.438,0.168,0.731,0.168l0.481,0l0,4.362c0,0.277,0.026,0.533,0.081,0.768c0.056,0.246,0.154,0.464,0.298,0.645c0.146,0.186,0.345,0.332,0.595,0.436c0.241,0.098,0.555,0.146,0.93,0.146l0.896,0c0.292,0,0.539,-0.054,0.731,-0.166c0.154,-0.089,0.341,-0.281,0.341,-0.693c0,-0.338,-0.114,-0.578,-0.341,-0.709c-0.192,-0.109,-0.439,-0.168,-0.731,-0.168l-0.821,0c-0.138,0,-0.19,-0.019,-0.207,-0.024c-0.014,-0.034,-0.035,-0.103,-0.035,-0.231L91.8059,94.4649l1.465,0c0.295,0,0.541,-0.057,0.734,-0.168c0.152,-0.09,0.34,-0.28,0.34,-0.692C94.3409,93.2649,94.2279,93.0259,94.0009,92.8969z" />
    <path fill="#8C8C8C" d="M85.5459,92.7269l-1.191,0c-0.292,0,-0.538,0.059,-0.731,0.169c-0.226,0.129,-0.341,0.368,-0.341,0.708c0,0.412,0.188,0.604,0.341,0.691c0.193,0.113,0.439,0.168,0.731,0.168l0.544,0l0,5.362c0,0.293,0.057,0.539,0.167,0.73c0.131,0.227,0.367,0.341,0.708,0.341c0.411,0,0.604,-0.187,0.692,-0.341c0.111,-0.191,0.168,-0.438,0.168,-0.73L86.6339,93.8149c0,-0.386,-0.084,-0.656,-0.256,-0.83C86.2029,92.8129,85.9329,92.7269,85.5459,92.7269z" />
    <path fill="#8C8C8C" d="M81.7109,92.8969c-0.193,-0.111,-0.44,-0.169,-0.732,-0.169l-0.604,0c-0.25,0,-0.498,0.063,-0.734,0.187c-0.226,0.119,-0.433,0.271,-0.616,0.453l-0.644,0.604l0,-0.247c0,-0.291,-0.055,-0.538,-0.168,-0.729c-0.128,-0.228,-0.368,-0.34,-0.707,-0.34c-0.41,0,-0.604,0.184,-0.693,0.34c-0.11,0.191,-0.167,0.438,-0.167,0.729l0,4.801c-0.475,0.293,-0.791,0.816,-0.791,1.412c0,0.917,0.745,1.661,1.658,1.661c0.916,0,1.66,-0.744,1.66,-1.661c0,-0.596,-0.317,-1.119,-0.792,-1.412l0,-2.21l1.738,-1.564c0.1,-0.09,0.199,-0.164,0.297,-0.217c0.084,-0.045,0.174,-0.067,0.274,-0.067l0.288,0c0.292,0,0.539,-0.056,0.732,-0.169c0.155,-0.088,0.339,-0.279,0.339,-0.691C82.0509,93.2649,81.9359,93.0259,81.7109,92.8969zM77.5119,100.54c-0.332,0,-0.603,-0.271,-0.603,-0.604c0,-0.333,0.271,-0.604,0.603,-0.604c0.333,0,0.604,0.271,0.604,0.604C78.1159,100.271,77.8449,100.54,77.5119,100.54z" />
    <path fill="#8C8C8C" d="M74.9949,89.3779c-0.193,-0.111,-0.44,-0.167,-0.731,-0.167l-0.59,0c-0.2,0,-0.389,0.004,-0.562,0.016c-0.176,0.009,-0.345,0.035,-0.506,0.07c-0.168,0.041,-0.336,0.109,-0.496,0.202c-0.158,0.093,-0.319,0.222,-0.48,0.382c-0.334,0.314,-0.554,0.656,-0.652,1.017c-0.094,0.348,-0.143,0.735,-0.143,1.151l0,0.678l-0.483,0c-0.292,0,-0.539,0.059,-0.73,0.169c-0.227,0.13,-0.342,0.369,-0.342,0.708c0,0.412,0.185,0.604,0.341,0.693c0.191,0.111,0.438,0.166,0.73,0.166l0.483,0l0,5.362c0,0.293,0.057,0.539,0.167,0.73c0.13,0.227,0.367,0.341,0.708,0.341c0.411,0,0.603,-0.187,0.692,-0.341c0.111,-0.191,0.168,-0.438,0.168,-0.73l0,-5.36l0.92,0c0.293,0,0.54,-0.057,0.732,-0.168c0.155,-0.09,0.34,-0.28,0.34,-0.692c0,-0.34,-0.114,-0.579,-0.34,-0.708c-0.189,-0.111,-0.436,-0.17,-0.729,-0.17l-0.92,0l0,-0.678c0,-0.218,0.019,-0.41,0.056,-0.571c0.032,-0.141,0.103,-0.261,0.218,-0.367l0.002,-0.004l0.002,-0.002c0.082,-0.082,0.176,-0.126,0.29,-0.136c0.15,-0.015,0.339,-0.022,0.564,-0.022l0.56,0c0.291,0,0.539,-0.058,0.731,-0.168c0.154,-0.088,0.339,-0.281,0.339,-0.693C75.3349,89.7469,75.2199,89.5079,74.9949,89.3779z" />
    <path fill="#8C8C8C" d="M126.988,92.9949c-0.089,-0.156,-0.282,-0.34,-0.693,-0.34c-0.339,0,-0.578,0.113,-0.707,0.34c-0.078,0.133,-0.127,0.293,-0.152,0.477l-0.021,-0.021c-0.216,-0.236,-0.466,-0.42,-0.747,-0.539c-0.277,-0.119,-0.563,-0.183,-0.849,-0.183l-0.709,0c-0.249,0,-0.466,0.015,-0.64,0.041c-0.182,0.026,-0.352,0.074,-0.51,0.14c-0.158,0.066,-0.313,0.15,-0.459,0.254c-0.139,0.097,-0.303,0.226,-0.486,0.377c-0.188,0.156,-0.342,0.302,-0.463,0.434c-0.127,0.141,-0.23,0.293,-0.306,0.455c-0.069,0.16,-0.122,0.337,-0.147,0.523c-0.026,0.178,-0.041,0.391,-0.041,0.631l0,2.386c0,0.24,0.015,0.451,0.041,0.631c0.025,0.188,0.078,0.361,0.147,0.521c0.074,0.164,0.179,0.318,0.306,0.457c0.119,0.129,0.274,0.274,0.463,0.433c0.186,0.153,0.35,0.28,0.486,0.379c0.146,0.103,0.299,0.188,0.459,0.254c0.158,0.065,0.329,0.112,0.51,0.14c0.174,0.026,0.389,0.039,0.64,0.039l0.709,0c0.298,0,0.591,-0.066,0.87,-0.199c0.244,-0.114,0.492,-0.291,0.73,-0.523l0,1.434c0,0.18,-0.025,0.334,-0.072,0.465c-0.043,0.119,-0.159,0.258,-0.344,0.406c-0.154,0.127,-0.309,0.217,-0.457,0.264c-0.15,0.049,-0.341,0.074,-0.563,0.074l-2.203,0c-0.293,0,-0.538,0.055,-0.732,0.166c-0.152,0.088,-0.34,0.282,-0.34,0.692c0,0.341,0.115,0.579,0.34,0.71c0.194,0.109,0.439,0.167,0.732,0.167l2.326,0c0.247,0,0.463,-0.015,0.638,-0.041c0.179,-0.026,0.351,-0.073,0.513,-0.14c0.153,-0.064,0.31,-0.15,0.455,-0.254c0.143,-0.101,0.305,-0.227,0.487,-0.379c0.185,-0.153,0.343,-0.299,0.463,-0.431c0.128,-0.141,0.229,-0.294,0.304,-0.456c0.071,-0.162,0.123,-0.338,0.148,-0.523c0.025,-0.182,0.041,-0.393,0.041,-0.631l0,-7.898C127.155,93.4329,127.101,93.1859,126.988,92.9949zM125.419,97.4549c0,0.188,-0.062,0.35,-0.188,0.49c-0.15,0.172,-0.394,0.403,-0.716,0.686l-0.002,0.003l-0.002,0.004c-0.139,0.13,-0.291,0.237,-0.453,0.325c-0.148,0.082,-0.325,0.121,-0.526,0.121L123.231,99.0839c-0.222,0,-0.41,-0.021,-0.563,-0.072c-0.148,-0.049,-0.301,-0.137,-0.453,-0.264c-0.231,-0.186,-0.315,-0.322,-0.346,-0.404c-0.049,-0.131,-0.072,-0.285,-0.072,-0.465l0,-2.206c0,-0.18,0.023,-0.336,0.072,-0.467c0.029,-0.082,0.113,-0.217,0.346,-0.403c0.152,-0.127,0.305,-0.216,0.453,-0.265c0.153,-0.049,0.342,-0.072,0.563,-0.072l0.301,0c0.212,0,0.388,0.037,0.526,0.113c0.152,0.082,0.308,0.191,0.457,0.324c0.322,0.293,0.564,0.529,0.716,0.7c0.128,0.146,0.188,0.304,0.188,0.492L125.419,97.4549z" />
    <path fill="#8C8C8C" d="M107.009,88.2349c-0.914,0,-1.66,0.745,-1.66,1.66c0,0.916,0.746,1.66,1.66,1.66s1.66,-0.744,1.66,-1.66C108.669,88.9799,107.923,88.2349,107.009,88.2349zM107.009,90.4979c-0.332,0,-0.604,-0.27,-0.604,-0.603s0.271,-0.603,0.604,-0.603s0.604,0.27,0.604,0.603C107.613,90.2279,107.341,90.4979,107.009,90.4979z" />
    <path fill="#8C8C8C" d="M117.695,98.5029l-0.107,-3.419c-0.011,-0.178,-0.021,-0.338,-0.031,-0.489c-0.01,-0.162,-0.037,-0.322,-0.082,-0.476c-0.045,-0.158,-0.11,-0.309,-0.198,-0.453c-0.093,-0.146,-0.216,-0.289,-0.37,-0.42c-0.225,-0.192,-0.443,-0.334,-0.646,-0.416c-0.207,-0.084,-0.461,-0.127,-0.754,-0.127l-1.012,0c-0.259,0,-0.501,0.058,-0.716,0.164c-0.197,0.098,-0.39,0.203,-0.572,0.315l-0.003,0.002l-0.003,0.003l-0.837,0.555l0,-0.041c0,-0.291,-0.057,-0.539,-0.168,-0.733c-0.129,-0.226,-0.367,-0.339,-0.707,-0.339c-0.411,0,-0.604,0.185,-0.693,0.339c-0.109,0.194,-0.168,0.438,-0.168,0.733l0,6.099c0,0.295,0.059,0.539,0.168,0.734c0.09,0.153,0.282,0.338,0.693,0.338c0.34,0,0.578,-0.114,0.707,-0.338c0.111,-0.195,0.168,-0.439,0.168,-0.734L112.364,95.7649l1.953,-1.215c0.04,-0.024,0.082,-0.048,0.121,-0.063c0.031,-0.016,0.07,-0.025,0.115,-0.031c0.049,-0.012,0.117,-0.016,0.195,-0.016l0.362,0c0.188,0,0.334,0.021,0.435,0.059c0.082,0.029,0.143,0.076,0.18,0.143c0.05,0.078,0.08,0.18,0.098,0.303c0.02,0.139,0.034,0.309,0.045,0.504l0.096,3.097c-0.457,0.297,-0.762,0.811,-0.762,1.394c0,0.917,0.746,1.661,1.66,1.661c0.916,0,1.66,-0.744,1.66,-1.661C118.521,99.3279,118.188,98.7899,117.695,98.5029zM116.861,100.54c-0.334,0,-0.602,-0.271,-0.602,-0.604c0,-0.333,0.268,-0.604,0.602,-0.604c0.333,0,0.604,0.271,0.604,0.604C117.466,100.271,117.194,100.54,116.861,100.54z" />
    <path fill="#8C8C8C" d="M107.072,92.7269l-1.193,0c-0.293,0,-0.539,0.059,-0.731,0.169c-0.226,0.129,-0.341,0.368,-0.341,0.708c0,0.412,0.186,0.604,0.341,0.691c0.192,0.113,0.438,0.168,0.731,0.168l0.545,0l0,5.362c0,0.293,0.055,0.539,0.168,0.73c0.127,0.227,0.365,0.341,0.707,0.341c0.41,0,0.604,-0.187,0.691,-0.341c0.111,-0.191,0.17,-0.438,0.17,-0.73L108.16,93.8149c0,-0.386,-0.085,-0.656,-0.259,-0.83C107.729,92.8129,107.456,92.7269,107.072,92.7269z" />
   </g>
  </g>
 </g>
 <g partID="855128980">
  <g transform="translate(22.752,43.9485)">
   <g transform="matrix(0,1,-1,0,0,0)">
    <g id="schematic">
     <line fill="none" y1="0.576" stroke="#000000" y2="22.177" x1="11.15" x2="11.15" stroke-linecap="round" stroke-width="0.9"/>
     <line fill="none" y1="7.776" stroke="#000000" y2="14.976" x1="14.75" x2="14.75" stroke-linecap="round" stroke-width="0.9"/>
     <line fill="none" y1="0.576" stroke="#000000" y2="22.177" x1="18.35" x2="18.35" stroke-linecap="round" stroke-width="0.9"/>
     <line fill="none" y1="7.776" stroke="#000000" y2="11.376" x1="21.95" x2="21.95" stroke-linecap="round" stroke-width="0.9"/>
     <line fill="none" y1="11.376" stroke="#000000" y2="14.976" x1="21.95" x2="21.95" stroke-linecap="round" stroke-width="0.9"/>
     <line fill="none" y1="11.376" stroke="#000000" y2="11.376" x1="7.55" x2="11.063" stroke-linecap="round" stroke-width="0.9"/>
     <line fill="none" y1="11.376" stroke="#000000" y2="11.376" x1="21.95" x2="25.55" stroke-linecap="round" stroke-width="0.9"/>
     <line fill="none" y1="11.376" stroke="#000000" y2="4.176" x1="25.55" x2="25.55" stroke-linecap="round" stroke-width="0.9"/>
     <line fill="none" y1="11.376" stroke="#000000" y2="18.576" x1="25.55" x2="25.55" stroke-linecap="round" stroke-width="0.9"/>
     <line fill="none" y1="4.176" stroke="#000000" y2="11.376" x1="7.55" x2="7.55" stroke-linecap="round" stroke-width="0.9"/>
     <line fill="none" y1="11.376" stroke="#000000" y2="18.576" x1="7.55" x2="7.55" stroke-linecap="round" stroke-width="0.9"/>
     <g id="connector0terminal" points="29.5,4.563,29.5,3.829,28.344,3.813,28.344,4.532" fill="none"/>
     <g transform="matrix(1, 0, 0, 1, 27.1484, 3.126)">
      <text font-family="'DroidSans'" fill="#8C8C8C" font-size="2.5">1</text>
     </g>
     <line id="connector3pin" fill="none" y1="18.576" stroke="#787878" y2="18.576" x1="0.35" x2="7.55" stroke-linecap="round" stroke-width="0.75"/>
     <g id="connector3terminal" points="0,18.251,0,18.938,1.047,18.938,1.031,18.22" fill="none"/>
     <g transform="matrix(1, 0, 0, 1, 3.2598, 17.5264)">
      <text font-family="'DroidSans'" fill="#8C8C8C" font-size="2.5">4</text>
     </g>
     <line id="connector1pin" fill="none" y1="4.176" stroke="#787878" y2="4.176" x1="0.35" x2="7.55" stroke-linecap="round" stroke-width="0.75"/>
     <g id="connector1terminal" points="0,4.548,0,3.845,1.094,3.876,1.047,4.532" fill="none"/>
     <g transform="matrix(1, 0, 0, 1, 3.2598, 3.126)">
      <text font-family="'DroidSans'" fill="#8C8C8C" font-size="2.5">2</text>
     </g>
     <g id="connector2terminal" points="29.5,18.392,29.5,18.751,28.469,18.688,28.438,18.454" fill="none"/>
     <g transform="matrix(1, 0, 0, 1, 27.1484, 17.5264)">
      <text font-family="'DroidSans'" fill="#8C8C8C" font-size="2.5">3</text>
     </g>
     <polyline id="connector2pin" points="29.149,18.576,25.497,18.576,25.497,18.576" fill="none" stroke="#787878" stroke-linecap="round" stroke-width="0.75"/>
     <line id="connector0pin" fill="none" y1="4.176" stroke="#787878" y2="4.176" x1="29.151" x2="25.547" stroke-linecap="round" stroke-width="0.75"/>
    </g>
   </g>
  </g>
 </g>
 <g partID="855128960">
  <g transform="translate(22.752,7.94878)">
   <g transform="matrix(0,1,-1,0,0,0)">
    <g id="schematic">
     <line fill="none" y1="0.576" stroke="#000000" y2="22.177" x1="11.15" x2="11.15" stroke-linecap="round" stroke-width="0.9"/>
     <line fill="none" y1="7.776" stroke="#000000" y2="14.976" x1="14.75" x2="14.75" stroke-linecap="round" stroke-width="0.9"/>
     <line fill="none" y1="0.576" stroke="#000000" y2="22.177" x1="18.35" x2="18.35" stroke-linecap="round" stroke-width="0.9"/>
     <line fill="none" y1="7.776" stroke="#000000" y2="11.376" x1="21.95" x2="21.95" stroke-linecap="round" stroke-width="0.9"/>
     <line fill="none" y1="11.376" stroke="#000000" y2="14.976" x1="21.95" x2="21.95" stroke-linecap="round" stroke-width="0.9"/>
     <line fill="none" y1="11.376" stroke="#000000" y2="11.376" x1="7.55" x2="11.063" stroke-linecap="round" stroke-width="0.9"/>
     <line fill="none" y1="11.376" stroke="#000000" y2="11.376" x1="21.95" x2="25.55" stroke-linecap="round" stroke-width="0.9"/>
     <line fill="none" y1="11.376" stroke="#000000" y2="4.176" x1="25.55" x2="25.55" stroke-linecap="round" stroke-width="0.9"/>
     <line fill="none" y1="11.376" stroke="#000000" y2="18.576" x1="25.55" x2="25.55" stroke-linecap="round" stroke-width="0.9"/>
     <line fill="none" y1="4.176" stroke="#000000" y2="11.376" x1="7.55" x2="7.55" stroke-linecap="round" stroke-width="0.9"/>
     <line fill="none" y1="11.376" stroke="#000000" y2="18.576" x1="7.55" x2="7.55" stroke-linecap="round" stroke-width="0.9"/>
     <g id="connector0terminal" points="29.5,4.563,29.5,3.829,28.344,3.813,28.344,4.532" fill="none"/>
     <g transform="matrix(1, 0, 0, 1, 27.1484, 3.126)">
      <text font-family="'DroidSans'" fill="#8C8C8C" font-size="2.5">1</text>
     </g>
     <line id="connector3pin" fill="none" y1="18.576" stroke="#787878" y2="18.576" x1="0.35" x2="7.55" stroke-linecap="round" stroke-width="0.75"/>
     <g id="connector3terminal" points="0,18.251,0,18.938,1.047,18.938,1.031,18.22" fill="none"/>
     <g transform="matrix(1, 0, 0, 1, 3.2598, 17.5264)">
      <text font-family="'DroidSans'" fill="#8C8C8C" font-size="2.5">4</text>
     </g>
     <line id="connector1pin" fill="none" y1="4.176" stroke="#787878" y2="4.176" x1="0.35" x2="7.55" stroke-linecap="round" stroke-width="0.75"/>
     <g id="connector1terminal" points="0,4.548,0,3.845,1.094,3.876,1.047,4.532" fill="none"/>
     <g transform="matrix(1, 0, 0, 1, 3.2598, 3.126)">
      <text font-family="'DroidSans'" fill="#8C8C8C" font-size="2.5">2</text>
     </g>
     <g id="connector2terminal" points="29.5,18.392,29.5,18.751,28.469,18.688,28.438,18.454" fill="none"/>
     <g transform="matrix(1, 0, 0, 1, 27.1484, 17.5264)">
      <text font-family="'DroidSans'" fill="#8C8C8C" font-size="2.5">3</text>
     </g>
     <polyline id="connector2pin" points="29.149,18.576,25.497,18.576,25.497,18.576" fill="none" stroke="#787878" stroke-linecap="round" stroke-width="0.75"/>
     <line id="connector0pin" fill="none" y1="4.176" stroke="#787878" y2="4.176" x1="29.151" x2="25.547" stroke-linecap="round" stroke-width="0.75"/>
    </g>
   </g>
  </g>
 </g>
 <g partID="855125310">
  <g transform="translate(53.2696,30.2485)">
   <g transform="matrix(0,-1,1,0,0,0)">
    <g id="schematic" >
     <line class="other" y1="8.50619" stroke="#000000" y2="4.9062" x1="7.54999" x2="14.75"  stroke-linecap="round" stroke-width="0.72"/>
     <line class="other" y1="15.7062" stroke="#000000" y2="15.7062" x1="14.75" x2="16.55"  stroke-linecap="round" stroke-width="0.36"/>
     <line class="other" y1="1.3062" stroke="#000000" y2="1.3062" x1="14.75" x2="16.55"  stroke-linecap="round" stroke-width="0.432"/>
     <circle fill="none" class="other" cx="14.75" stroke="#000000" cy="1.3062" r="1.0182"  stroke-width="0.576"/>
     <circle fill="none" class="other" cx="14.75" stroke="#000000" cy="15.7062" r="1.0182"  stroke-width="0.576"/>
     <circle fill="none" class="other" cx="7.54999" stroke="#000000" cy="8.50619" r="1.0182"  stroke-width="0.576"/>
     <line id="connector1pin" class="pin" y1="8.50619" stroke="#787878" y2="8.50619" x1="0.349999" x2="7.54999"  stroke-linecap="round" connectorname="P" stroke-width="0.699999"/>
     <g id="connector1terminal" x="0.349999" fill="none" class="terminal" y="8.50619" stroke="none" height="0.000283464"  stroke-width="0" width="0.000283465"/>
     <text x="3.94999" font-family="'Droid Sans'" fill="#8c8c8c" class="text" font-size="2.5" stroke="none" y="7.45618" text-anchor="middle"  stroke-width="0">2</text>
     <line id="connector2pin" class="pin" y1="15.7062" stroke="#787878" y2="15.7062" x1="21.95" x2="14.75"  stroke-linecap="round" connectorname="S" stroke-width="0.699999"/>
     <g id="connector2terminal" x="21.95" fill="none" class="terminal" y="15.7062" stroke="none" height="0.000283464"  stroke-width="0" width="0.000283465"/>
     <text x="18.35" font-family="'Droid Sans'" fill="#8c8c8c" class="text" font-size="2.5" stroke="none" y="14.6562" text-anchor="middle"  stroke-width="0">3</text>
     <line id="connector0pin" class="pin" y1="1.3062" stroke="#787878" y2="1.3062" x1="21.95" x2="14.75"  stroke-linecap="round" connectorname="O" stroke-width="0.699999"/>
     <g id="connector0terminal" x="21.95" fill="none" class="terminal" y="1.3062" stroke="none" height="0.000283464"  stroke-width="0" width="0.000283465"/>
     <text x="18.35" font-family="'Droid Sans'" fill="#8c8c8c" class="text" font-size="2.5" stroke="none" y="0.256206" text-anchor="middle"  stroke-width="0">1</text>
    </g>
   </g>
  </g>
 </g>
 <g partID="855125410">
  <g transform="translate(54.2157,43.9486)">
   <g id="schematic">
    <line class="other" y1="7.54999" stroke="#000000" y2="7.54999" x1="0.36" x2="14.76" stroke-linecap="round" stroke-width="0.72"/>
    <line class="other" y1="10.43" stroke="#000000" y2="14.75" x1="7.56" x2="7.56" stroke-linecap="round" stroke-width="0.432"/>
    <path fill="none" class="other" stroke="#000000" d="M7.56,10.3846A11.4922,11.4922,0,0,1,14.616,12.806" stroke-width="0.72"/>
    <path fill="none" class="other" stroke="#000000" d="M0.567213,12.7952A11.5191,11.5191,0,0,1,7.56,10.4303" stroke-width="0.72"/>
    <rect x="1.17354" fill="#000000" class="other" y="5.29645" stroke="none" height="0.36" stroke-linecap="round" stroke-width="0" width="2.52"/>
    <rect x="2.25354" fill="#000000" class="other" y="4.21645" stroke="none" height="2.52" stroke-linecap="round" stroke-width="0" width="0.36"/>
    <line id="connector1pin" class="pin" y1="0.349999" stroke="#787878" y2="7.54999" x1="7.56" x2="7.56" stroke-linecap="round" connectorname="+" stroke-width="0.699999"/>
    <g id="connector1terminal" x="7.56" fill="none" class="terminal" y="0.349999" stroke="none" height="0.000283465" stroke-width="0" width="0.000283465"/>
    <g transform="matrix(1, 0, 0, 1, 6.50999, 3.94999)">
     <g>
      <g transform="rotate(270)">
       <g>
        <text x="0" font-family="'Droid Sans'" fill="#8c8c8c" class="text" font-size="2.5" stroke="none" y="0" text-anchor="middle" stroke-width="0">2</text>
       </g>
      </g>
     </g>
    </g>
    <line id="connector0pin" class="pin" y1="21.95" stroke="#787878" y2="14.75" x1="7.56" x2="7.56" stroke-linecap="round" connectorname="-" stroke-width="0.699999"/>
    <g id="connector0terminal" x="7.56" fill="none" class="terminal" y="21.95" stroke="none" height="0.000283465" stroke-width="0" width="0.000283465"/>
    <g transform="matrix(1, 0, 0, 1, 6.50999, 18.35)">
     <g>
      <g transform="rotate(270)">
       <g>
        <text x="0" font-family="'Droid Sans'" fill="#8c8c8c" class="text" font-size="2.5" stroke="none" y="0" text-anchor="middle" stroke-width="0">1</text>
       </g>
      </g>
     </g>
    </g>
   </g>
  </g>
 </g>
 <g partID="855125470">
  <g transform="translate(95.0751,29.6828)">
   <g id="schematic">
    <g>
     <path d="M13.5,14.966L9.9,14.966c-0.193,0,-0.35,-0.156,-0.35,-0.35s0.156,-0.35,0.35,-0.35L13.5,14.266c0.193,0,0.35,0.156,0.35,0.35S13.694,14.966,13.5,14.966z"/>
    </g>
    <g>
     <path d="M9.9,14.966L6.3,14.966c-0.193,0,-0.35,-0.156,-0.35,-0.35s0.157,-0.35,0.35,-0.35l3.6,0c0.193,0,0.35,0.156,0.35,0.35S10.093,14.966,9.9,14.966z"/>
    </g>
    <g>
     <polygon points="9.9,14.616,6.3,7.416,9.9,7.416,13.5,7.416" fill="#FFFFFF"/>
     <path d="M9.9,15.398L5.734,7.066l8.333,0L9.9,15.398zM6.866,7.766L9.9,13.834l3.034,-6.068L6.866,7.766z"/>
    </g>
    <g>
     <path d="M9.9,14.841c-0.124,0,-0.225,-0.101,-0.225,-0.225l0,-7.2c0,-0.124,0.101,-0.225,0.225,-0.225s0.225,0.101,0.225,0.225l0,7.2C10.124,14.74,10.024,14.841,9.9,14.841z"/>
    </g>
    <g>
     <path d="M1.8,12.141c-0.058,0,-0.115,-0.021,-0.159,-0.065c-0.088,-0.088,-0.088,-0.23,0,-0.318l2.34,-2.341c0.088,-0.088,0.23,-0.088,0.318,0s0.088,0.23,0,0.318l-2.34,2.341C1.915,12.12,1.858,12.141,1.8,12.141z"/>
    </g>
    <g>
     <path d="M2.16,15.381c-0.058,0,-0.115,-0.021,-0.159,-0.065c-0.088,-0.088,-0.088,-0.23,0,-0.318l2.34,-2.34c0.088,-0.088,0.23,-0.088,0.318,0s0.088,0.23,0,0.318l-2.34,2.34C2.276,15.359,2.218,15.381,2.16,15.381z"/>
    </g>
    <g id="connector0pin">
     <path fill="#787878" d="M9.9,22.166c-0.193,0,-0.35,-0.156,-0.35,-0.35l0,-7.2c0,-0.193,0.156,-0.35,0.35,-0.35s0.35,0.156,0.35,0.35l0,7.2C10.249,22.01,10.093,22.166,9.9,22.166z"/>
    </g>
    <g id="connector0terminal">
     <rect x="9.9" fill="none" y="21.816" height="0.001" width="0.001"/>
    </g>
    <g transform="matrix(1, 0, 0, 1, 3.429, 6.4262)">
     <g>
      <g transform="rotate(270)">
       <g>
        <g enable-background="new    ">
         <path fill="#787878" d="M-11.647,5.54l-0.891,0L-12.538,5.388l0.342,-0.372c0.049,-0.053,0.093,-0.101,0.131,-0.145s0.071,-0.086,0.099,-0.128c0.026,-0.042,0.047,-0.084,0.062,-0.125c0.015,-0.043,0.021,-0.088,0.021,-0.138c0,-0.038,-0.005,-0.072,-0.017,-0.102s-0.027,-0.054,-0.047,-0.075c-0.021,-0.02,-0.045,-0.035,-0.073,-0.046s-0.06,-0.016,-0.094,-0.016c-0.062,0,-0.118,0.013,-0.167,0.038c-0.051,0.024,-0.098,0.057,-0.143,0.096l-0.1,-0.116c0.025,-0.023,0.055,-0.046,0.084,-0.065c0.029,-0.021,0.063,-0.039,0.097,-0.054s0.071,-0.026,0.109,-0.036c0.038,-0.008,0.079,-0.013,0.121,-0.013c0.063,0,0.119,0.009,0.169,0.026c0.051,0.018,0.094,0.043,0.129,0.076c0.035,0.032,0.063,0.072,0.082,0.119c0.019,0.048,0.028,0.101,0.028,0.16c0,0.056,-0.009,0.108,-0.026,0.158c-0.017,0.05,-0.041,0.1,-0.07,0.148c-0.031,0.048,-0.066,0.097,-0.109,0.146c-0.041,0.049,-0.087,0.1,-0.136,0.152L-12.32,5.37l0,0.008l0.673,0L-11.647,5.54z"/>
        </g>
       </g>
      </g>
     </g>
    </g>
    <g id="connector1pin">
     <path fill="#787878" d="M9.9,7.766c-0.193,0,-0.35,-0.157,-0.35,-0.35l0,-7.2c0,-0.193,0.156,-0.35,0.35,-0.35s0.35,0.157,0.35,0.35l0,7.2C10.249,7.609,10.093,7.766,9.9,7.766z"/>
    </g>
    <g id="connector1terminal">
     <polygon points="9.9,0.216,9.901,0.216,9.901,0.216" fill="none"/>
    </g>
    <g transform="matrix(1, 0, 0, 1, 3.429, 1.3462)">
     <g>
      <g transform="rotate(270)">
       <g>
        <g enable-background="new    ">
         <path fill="#787878" d="M-2.616,5.54l-0.172,0L-2.788,4.648c0,-0.028,0,-0.058,0,-0.09s0.001,-0.063,0.002,-0.095c0.001,-0.032,0.002,-0.063,0.003,-0.092c0.001,-0.028,0.002,-0.054,0.002,-0.076c-0.011,0.012,-0.021,0.021,-0.029,0.03s-0.017,0.017,-0.026,0.024s-0.018,0.016,-0.028,0.025c-0.01,0.008,-0.021,0.019,-0.035,0.03l-0.145,0.118l-0.094,-0.12l0.374,-0.292l0.146,0L-2.618,5.54z"/>
        </g>
       </g>
      </g>
     </g>
    </g>
    <g>
     <path d="M0.18,13.536l1.08,-2.521l1.44,1.438L0.18,13.536z"/>
    </g>
    <g>
     <path d="M0.54,16.776l1.08,-2.521l1.438,1.438L0.54,16.776z"/>
    </g>
   </g>
  </g>
 </g>
 <g partID="855128260">
  <line y1="80.383" stroke="#404040" y2="65.8987" x1="61.8177" x2="61.7758" stroke-linecap="round" stroke-width="0.699998"/>
 </g>
 <circle fill="black" cx="61.7758" stroke="none" cy="65.8987" r="1.44" stroke-width="0"/>
 <g partID="855128340">
  <line y1="80.383" stroke="#404040" y2="80.383" x1="104.933" x2="61.8177" stroke-linecap="round" stroke-width="0.699998"/>
 </g>
 <g partID="855128270">
  <line y1="51.4993" stroke="#404040" y2="80.3829" x1="104.976" x2="104.934" stroke-linecap="round" stroke-width="0.699998"/>
 </g>
 <g partID="855128620">
  <line y1="1.05637" stroke="#404040" y2="29.8985" x1="104.933" x2="104.976" stroke-linecap="round" stroke-width="0.699998"/>
 </g>
 <g partID="855128560">
  <line y1="1.05637" stroke="#404040" y2="1.05637" x1="69.0601" x2="104.934" stroke-linecap="round" stroke-width="0.699998"/>
 </g>
 <g partID="855128570">
  <line y1="8.29877" stroke="#404040" y2="1.05667" x1="68.9759" x2="69.0601" stroke-linecap="round" stroke-width="0.699998"/>
 </g>
 <g partID="855128690">
  <line y1="37.0988" stroke="#404040" y2="44.2988" x1="61.8179" x2="61.7758" stroke-linecap="round" stroke-width="0.699998"/>
 </g>
 <g partID="855128700">
  <line y1="29.8988" stroke="#404040" y2="37.0988" x1="61.7759" x2="61.8179" stroke-linecap="round" stroke-width="0.699998"/>
 </g>
 <g partID="855129280">
  <line y1="44.2698" stroke="#404040" y2="36.8708" x1="18.5574" x2="18.564" stroke-linecap="round" stroke-width="0.699998"/>
 </g>
 <g partID="855129290">
  <line y1="44.4955" stroke="#404040" y2="44.2698" x1="18.5555" x2="18.5574" stroke-linecap="round" stroke-width="0.699998"/>
 </g>
 <g partID="855129400">
  <line y1="8.30053" stroke="#404040" y2="1.10667" x1="54.5987" x2="54.5987" stroke-linecap="round" stroke-width="0.699998"/>
 </g>
 <g partID="855129830">
  <line y1="1.10667" stroke="#404040" y2="8.49578" x1="18.5574" x2="18.5555" stroke-linecap="round" stroke-width="0.699998"/>
 </g>
 <g partID="855129880">
  <line y1="1.10667" stroke="#404040" y2="1.10667" x1="54.5987" x2="18.5574" stroke-linecap="round" stroke-width="0.699998"/>
 </g>
 <g partID="855129410">
  <line y1="8.2984" stroke="#404040" y2="8.30053" x1="54.5759" x2="54.5987" stroke-linecap="round" stroke-width="0.699998"/>
 </g>
 <g partID="855129580">
  <line y1="80.3111" stroke="#404040" y2="65.8987" x1="61.7925" x2="61.7758" stroke-linecap="round" stroke-width="0.699998"/>
 </g>
 <circle fill="black" cx="61.7758" stroke="none" cy="65.8987" r="1.44" stroke-width="0"/>
 <g partID="855129590">
  <line y1="72.8704" stroke="#404040" y2="80.3111" x1="18.564" x2="18.5574" stroke-linecap="round" stroke-width="0.699998"/>
 </g>
 <g partID="855129660">
  <line y1="80.3111" stroke="#404040" y2="80.3111" x1="18.5574" x2="61.7925" stroke-linecap="round" stroke-width="0.699998"/>
 </g>
 <g id="partLabel" partID="855125310">
  <g transform="translate(80.1255,4.99237)">
   <g id="schematicLabel" font-weight="normal" font-family="'DroidSans'" fill-opacity="1" fill="#000000" font-style="normal" font-size="5" stroke="none">
    <text x="0" y="3.75">S1</text>
   </g>
  </g>
 </g>
 <g id="partLabel" partID="855125410">
  <g transform="translate(69.3357,32.7486)">
   <g id="schematicLabel" font-weight="normal" font-family="'DroidSans'" fill-opacity="1" fill="#000000" font-style="normal" font-size="5" stroke="none">
    <text x="0" y="3.75">C1</text>
    <text x="0" y="8.75">0.47mF</text>
    <text x="0" y="13.75">50V</text>
   </g>
  </g>
 </g>
 <g id="partLabel" partID="855125470">
  <g transform="translate(108.755,18.4828)">
   <g id="schematicLabel" font-weight="normal" font-family="'DroidSans'" fill-opacity="1" fill="#000000" font-style="normal" font-size="5" stroke="none">
    <text x="0" y="3.75">LASER</text>
   </g>
  </g>
 </g>
 <g id="partLabel" partID="855128960">
  <g transform="translate(26.126,5.72277)">
   <g id="schematicLabel" font-weight="normal" font-family="'DroidSans'" fill-opacity="1" fill="#000000" font-style="normal" font-size="5" stroke="none">
    <text x="0" y="3.75">BAT1</text>
    <text x="0" y="8.75">2.4V</text>
   </g>
  </g>
 </g>
 <g id="partLabel" partID="855128980">
  <g transform="translate(26.126,41.7225)">
   <g id="schematicLabel" font-weight="normal" font-family="'DroidSans'" fill-opacity="1" fill="#000000" font-style="normal" font-size="5" stroke="none">
    <text x="0" y="3.75">BAT2</text>
    <text x="0" y="8.75">2.4V</text>
   </g>
  </g>
 </g>
</svg>
